<?xml version="1.0" encoding="utf-8"?>
<!-- Generator: Adobe Illustrator 23.1.0, SVG Export Plug-In . SVG Version: 6.00 Build 0)  -->
<svg version="1.1" id="Layer_1" xmlns="http://www.w3.org/2000/svg" xmlns:xlink="http://www.w3.org/1999/xlink" x="0px" y="0px"
	 viewBox="0 0 800 800" style="enable-background:new 0 0 800 800;" xml:space="preserve">
<style type="text/css">
	.st0{fill:none;stroke:#B59570;stroke-width:63.6667;stroke-miterlimit:333.3333;}
	.st1{fill:#B59570;}
</style>
<path class="st0" d="M303.7,169.3c0,79.7-127,200-127,200S49.3,250,49.3,169.3C51.5,101.3,108.5,47.8,176.5,50c0,0,0.1,0,0.1,0
	C244.7,47.9,301.5,101.3,303.7,169.3z"/>
<circle class="st1" cx="176.7" cy="177.3" r="31.7"/>
<path class="st0" d="M144.7,433.3H288c43,0.5,77.8,35,78.7,78l0,0c0,43.9-35.5,79.5-79.3,79.7H128.7c-43.7,0.2-79.2,35.6-79.3,79.3
	l0,0c0,43.9,35.5,79.5,79.3,79.7H590"/>
<line class="st0" x1="558.3" y1="272.7" x2="558.3" y2="686.3"/>
<polygon class="st0" points="558.3,527.3 717.3,432 558.3,336.3 "/>
</svg>
