<?xml version="1.0" encoding="utf-8"?>
<!-- Generator: Adobe Illustrator 23.1.0, SVG Export Plug-In . SVG Version: 6.00 Build 0)  -->
<svg version="1.1" id="Capa_1" xmlns="http://www.w3.org/2000/svg" xmlns:xlink="http://www.w3.org/1999/xlink" x="0px" y="0px"
	 viewBox="0 0 800 800" style="enable-background:new 0 0 800 800;" xml:space="preserve">
<style type="text/css">
	.st0{fill:#B59570;}
</style>
<path class="st0" d="M577.3,772.9V326.1c0-7.5-6.1-13.6-13.6-13.6h-1V203.7c0-7.2-5.7-13.1-12.8-13.5V95.8c0-7.5-6.1-13.6-13.6-13.6
	h-14V13.6c0-7.5-6.1-13.6-13.6-13.6c-7.5,0-13.6,6.1-13.6,13.6v68.6h-14c-7.5,0-13.6,6.1-13.6,13.6v94.4
	c-7.4,0.1-13.3,6.1-13.3,13.5v108.9c-7.5,0-13.6,6.1-13.6,13.6v108h-80.5v-108c0-7.5-6.1-13.6-13.6-13.6h-1V203.7
	c0-7.2-5.7-13.1-12.8-13.5V95.8c0-7.5-6.1-13.6-13.6-13.6h-14V13.6c0-7.5-6.1-13.6-13.6-13.6s-13.6,6.1-13.6,13.6v68.6h-14
	c-7.5,0-13.6,6.1-13.6,13.6v94.4c-7.4,0.1-13.3,6.1-13.3,13.5v108.9c-7.5,0-13.6,6.1-13.6,13.6v446.8c-7.5,0-13.6,6.1-13.6,13.6
	s6.1,13.6,13.6,13.6h135c7.5,0,13.6-6.1,13.6-13.6c0-7-5.3-12.8-12.1-13.5V507.1l40.3-40.3l40.3,40.3v265.8
	c-7.4,0.1-13.3,6.1-13.3,13.5c0,7.5,6.1,13.6,13.6,13.6h135c7.5,0,13.6-6.1,13.6-13.6C589.6,779.4,584.2,773.5,577.3,772.9z
	 M522.8,109.3v80.8h-28v-80.8H522.8z M481.5,217.2h54.1v95.3h-54.1V217.2z M468,339.7h82.2v433.2h-27.5V447.7
	c0-7.5-6.1-13.6-13.6-13.6H468V339.7z M468,461.3h27.5v311.6H468V461.3z M305.9,109.3v80.8h-28v-80.8H305.9z M264.6,217.2h54.1v95.3
	h-54.1V217.2z M251,339.7h82.2v94.5h-41.1c-7.5,0-13.6,6.1-13.6,13.6v325.2H251V339.7z M333.2,772.9h-27.5V461.3h27.5V772.9z
	 M360.3,461.3h7.5l-7.5,7.5V461.3z M433.3,461.3h7.5v7.5L433.3,461.3z"/>
</svg>
