<?xml version="1.0" encoding="utf-8"?>
<!-- Generator: Adobe Illustrator 23.1.0, SVG Export Plug-In . SVG Version: 6.00 Build 0)  -->
<svg version="1.1" id="Layer_1" xmlns="http://www.w3.org/2000/svg" xmlns:xlink="http://www.w3.org/1999/xlink" x="0px" y="0px"
	 viewBox="0 0 800 800" style="enable-background:new 0 0 800 800;" xml:space="preserve">
<style type="text/css">
	.st0{fill:#C5A47E;}
</style>
<g>
	<g>
		<path class="st0" d="M785.1,432.8l-59.7-78.7c-32.3-42.6-83.6-68.1-137.1-68.1H313.3c-0.8-0.7-1.5-1.5-2.4-2.1l-45-35.5l42.5-26.4
			c13.1-8.2,17.2-25.4,9-38.6c-8.2-13.1-25.4-17.2-38.6-9l-76.5,47.5c-7.8,4.8-12.7,13.1-13.2,22.2c-0.5,9.1,3.5,17.9,10.6,23.6
			l23.3,18.3H28c-15.5,0-28,12.5-28,28v208.1c0,15.5,12.5,28,28,28h698.8c40.3,0,73.2-32.8,73.2-73.2
			C800,461.2,794.7,445.5,785.1,432.8z M726.8,494.2H56V342.1h532.4c31.9,0,62.5,13.4,84.3,36.3h-48.7c-15.5,0-28,12.5-28,28
			c0,15.5,12.5,28,28,28H708c2.5,0,5-0.4,7.3-1l25.2,33.3c2.2,3,3.5,6.6,3.5,10.4C744,486.5,736.3,494.2,726.8,494.2z"/>
	</g>
</g>
<g>
	<g>
		<path class="st0" d="M270.5,378.4h-32.3c-15.5,0-28,12.5-28,28c0,15.5,12.5,28,28,28h32.3c15.5,0,28-12.5,28-28
			C298.5,390.9,285.9,378.4,270.5,378.4z"/>
	</g>
</g>
<g>
	<g>
		<path class="st0" d="M395.5,378.4h-32.3c-15.5,0-28,12.5-28,28c0,15.5,12.5,28,28,28h32.3c15.5,0,28-12.5,28-28
			S410.9,378.4,395.5,378.4z"/>
	</g>
</g>
<g>
	<g>
		<path class="st0" d="M520.5,378.4h-32.3c-15.5,0-28,12.5-28,28c0,15.5,12.5,28,28,28h32.3c15.5,0,28-12.5,28-28
			S535.9,378.4,520.5,378.4z"/>
	</g>
</g>
<g>
	<g>
		<path class="st0" d="M730.6,573.7H28c-15.5,0-28,12.5-28,28c0,15.5,12.5,28,28,28h702.5c15.5,0,28-12.5,28-28
			C758.6,586.3,746,573.7,730.6,573.7z"/>
	</g>
</g>
</svg>
